<svg xmlns="http://www.w3.org/2000/svg" xmlns:xlink="http://www.w3.org/1999/xlink" width="365.942" height="367.875" viewBox="0 0 365.942 367.875"><defs><clipPath id="a"><path d="M354.971,333.179H299.25a4.969,4.969,0,0,1-4.969-4.969v-6.345a4.969,4.969,0,0,1,4.969-4.969h55.722a4.969,4.969,0,0,1,4.969,4.969v6.345A4.971,4.971,0,0,1,354.971,333.179Z"/></clipPath><clipPath id="b"><path d="M273.044,251.415s-43.006,11.858-49.908,10.973-9.026-3.893-10.619-3.893-6.017,2.124-7.964,1.947-4.248-.708-4.248.531,1.77,3.186,2.832,3.186,5.309-.177,5.309-.177-8.318,2.478-8.672,4.07a2.832,2.832,0,0,0,2.3,3.363,4.909,4.909,0,0,1,2.3,1.062,12.5,12.5,0,0,0,1.77,3.893c1.062,1.239,4.248,1.77,7.787,1.062s9.734-3.894,11.15-4.779,44.421-4.778,47.607-5.486,7.079-.708,8.318-2.832S273.044,251.415,273.044,251.415Z"/></clipPath><clipPath id="d"><path d="M309.324,208.055s-3.894,10.619-8.849,17.7-7.079,14.512-3.893,22.476a16.282,16.282,0,0,0,10.088,9.734s-2.478,23.361-1.77,29.555,10.265,13.45,24.6,13.981,26.724-4.6,26.724-9.557-10.088-31.325-10.088-36.812.885-22.653-3.893-38.05S320.651,196.729,309.324,208.055Z"/></clipPath><clipPath id="e"><path d="M308.262,210.71a37.922,37.922,0,0,0-7.433,6.194c-4.07,4.247-23.715,33.98-23.715,33.98s5.84,12.212,7.61,12.565,32.564-26.016,35.4-29.2,4.6-9.026,3.717-11.5"/></clipPath><clipPath id="f"><path d="M279.238,174.607s-.354,5.132.531,6.725,3.363,3.186,3.363,5.309-1.77,4.955-1.239,6.548,3.363,1.77,3.363,1.77,5.309,6.548,6.9,8.849,2.3,1.416,4.778.708,7.787-5.309,10.8-8.849-1.947-14.335-8.495-21.591-16.282-7.079-18.406-4.955S279.238,174.607,279.238,174.607Z"/></clipPath><clipPath id="j"><path d="M273.752,166.819l-.027.707L273.4,176.2l9.557,1.239,2.124-3.716v4.07a19.583,19.583,0,0,1,8.672,1.239c4.6,1.77,10.442,14.335,10.088,19.468s-4.778,6.194-4.247,13.981,12.388,15.574,21.414,10.619,10.442-11.327,14.158-10.088,9.38,8.849,12.919-1.947,1.947-17.7-6.371-26.547-14.866-8.141-15.928-15.22-3.363-16.636-10.973-21.945-18.583-5.663-27.963-1.593S273.752,162.218,273.752,166.819Z"/></clipPath></defs><g transform="translate(-67.226 -66.994)"><path d="M78.813,209.97S63.829,274,105.564,329.781s114.487,77.463,172.963,96.579,113.25-2.955,133.8-52.1-20.954-75.617-30.105-139.8-1.846-82.673-44.531-131.544-130.278-47.708-189.5,2.469S78.813,209.97,78.813,209.97Z" fill="#ffe2bb"/><g opacity="0.7"><path d="M78.813,209.97S63.829,274,105.564,329.781s114.487,77.463,172.963,96.579,113.25-2.955,133.8-52.1-20.954-75.617-30.105-139.8-1.846-82.673-44.531-131.544-130.278-47.708-189.5,2.469S78.813,209.97,78.813,209.97Z" fill="#ffe2bb"/></g><path d="M408.9,258.533s0-4.182-5.855-10.037-9.619-9.2-9.619-9.2-2.927,9.618,2.509,15.473A102.789,102.789,0,0,0,408.9,266.06v-7.527Z" fill="#c6ff00"/><path d="M400.4,284.65s0-4.182-5.855-10.037-9.618-9.2-9.618-9.2-2.927,9.618,2.509,15.473A102.867,102.867,0,0,0,400.4,292.177V284.65Z" fill="#c6ff00"/><path d="M408.531,265.656s.442-4.158,6.883-9.362,10.537-8.133,10.537-8.133,1.895,9.874-4.13,15.121a102.915,102.915,0,0,1-14.085,9.858Z" fill="#c6ff00"/><path d="M398.266,296.5s.876-4.089,7.828-8.587,11.333-6.981,11.333-6.981.847,10.018-5.7,14.6a102.84,102.84,0,0,1-15.042,8.324Z" fill="#c6ff00"/><path d="M400.2,330.129s0-4.182,5.855-10.037,9.619-9.2,9.619-9.2,2.927,9.618-2.509,15.473A102.789,102.789,0,0,1,400.2,337.656v-7.527Z" fill="#c6ff00"/><path d="M400.1,338.337s.594-4.14-4.369-10.767-8.214-10.474-8.214-10.474-4.264,9.105.285,15.673a102.827,102.827,0,0,0,11.228,13.019Z" fill="#c6ff00"/><path d="M394.325,362.664s0-4.182,5.855-10.036,9.618-9.2,9.618-9.2,2.927,9.618-2.509,15.473a102.788,102.788,0,0,1-12.964,11.291v-7.528Z" fill="#c6ff00"/><path d="M398.235,384.72s-1.059-4.046,3.122-11.192,6.975-11.336,6.975-11.336,5.268,8.564,1.491,15.6A102.812,102.812,0,0,1,400.141,392Z" fill="#c6ff00"/><path d="M409.429,257.461a119.609,119.609,0,0,1-1.6,12.985c-2.315,11.957-8.1,19.672-10.415,30.472s4.33,24.714,2.551,38.587-7.179,21.587-5.636,30.844,9.643,34.33,9.643,34.33" fill="none" stroke="#263238" stroke-linecap="round" stroke-linejoin="round" stroke-miterlimit="10" stroke-width="0.5"/><line y1="4.842" x2="6.31" transform="translate(408.473 263.593)" fill="none" stroke="#263238" stroke-linecap="round" stroke-linejoin="round" stroke-miterlimit="10" stroke-width="0.5"/><line x1="2.641" y1="4.695" transform="translate(406.126 258.164)" fill="none" stroke="#263238" stroke-linecap="round" stroke-linejoin="round" stroke-miterlimit="10" stroke-width="0.5"/><path d="M397.762,300.423s5.283-3.962,10.711-7.923" fill="none" stroke="#263238" stroke-linecap="round" stroke-linejoin="round" stroke-miterlimit="10" stroke-width="0.5"/><path d="M400.4,292.178s-4.4-8.629-9.39-14.352" fill="none" stroke="#263238" stroke-linecap="round" stroke-linejoin="round" stroke-miterlimit="10" stroke-width="0.5"/><path d="M400.4,336.078a65.382,65.382,0,0,1,11.3-15.113" fill="none" stroke="#263238" stroke-linecap="round" stroke-linejoin="round" stroke-miterlimit="10" stroke-width="0.5"/><path d="M399.376,341.948a73.908,73.908,0,0,0-5.722-10.858c-3.082-4.549-3.522-5.136-3.522-5.136" fill="none" stroke="#263238" stroke-linecap="round" stroke-linejoin="round" stroke-miterlimit="10" stroke-width="0.5"/><path d="M394.325,370.35a70.2,70.2,0,0,1,4.757-9.62,61.553,61.553,0,0,1,6.163-8.07" fill="none" stroke="#263238" stroke-linecap="round" stroke-linejoin="round" stroke-miterlimit="10" stroke-width="0.5"/><path d="M400.141,392a17.927,17.927,0,0,1,1.583-9.263c2.2-4.255,4.7-9.831,5.722-12.032" fill="none" stroke="#263238" stroke-linecap="round" stroke-linejoin="round" stroke-miterlimit="10" stroke-width="0.5"/><path d="M370.56,314.4s-.454-2.622,2.582-6.929,5.033-6.814,5.033-6.814,2.88,5.714.106,9.975a65.468,65.468,0,0,1-6.9,8.488Z" fill="#c6ff00"/><path d="M378.724,329.857s-.454-2.622,2.582-6.93,5.033-6.814,5.033-6.814,2.88,5.714.106,9.975a65.468,65.468,0,0,1-6.9,8.488Z" fill="#c6ff00"/><path d="M371.564,318.828s-.728-2.56-5.332-5.124-7.49-3.956-7.49-3.956-.116,6.4,4.231,9.034a65.444,65.444,0,0,0,9.9,4.653Z" fill="#c6ff00"/><path d="M381.349,337.056s-.993-2.469-5.841-4.535-7.864-3.147-7.864-3.147.556,6.374,5.157,8.54a65.482,65.482,0,0,0,10.336,3.587Z" fill="#c6ff00"/><path d="M383.79,358.353s-.454-2.622-4.761-5.658S372,347.97,372,347.97s-.792,6.349,3.253,9.43a65.5,65.5,0,0,0,9.355,5.673Z" fill="#c6ff00"/><path d="M384.742,363.49s-.822-2.531,1.571-7.226,4.013-7.459,4.013-7.459,3.663,5.246,1.523,9.859a65.5,65.5,0,0,1-5.628,9.383Z" fill="#c6ff00"/><path d="M392.091,384.643s.3-2.644,4.43-5.921,6.749-5.119,6.749-5.119,1.153,6.294-2.71,9.6a65.462,65.462,0,0,1-9.016,6.2Z" fill="#c6ff00"/><path d="M391,378.118s-.454-2.622-4.761-5.658-7.03-4.725-7.03-4.725-.792,6.349,3.253,9.431a65.5,65.5,0,0,0,9.355,5.673Z" fill="#c6ff00"/><path d="M390.946,392.373s.225-2.652-3.173-6.68-5.6-6.352-5.6-6.352-2.374,5.942.759,9.947a65.554,65.554,0,0,0,7.613,7.858Z" fill="#c6ff00"/><path d="M370.111,313.787a75.925,75.925,0,0,0,2.415,7.968c2.749,7.247,7.215,11.457,9.839,17.978s-.032,15.968,2.589,24.474,6.845,12.757,6.883,18.73-2.32,22.574-2.32,22.574" fill="none" stroke="#263238" stroke-linecap="round" stroke-linejoin="round" stroke-miterlimit="10" stroke-width="0.5"/><line x1="4.482" y1="2.352" transform="translate(367.42 318.213)" fill="none" stroke="#263238" stroke-linecap="round" stroke-linejoin="round" stroke-miterlimit="10" stroke-width="0.5"/><line y1="3.231" x2="1.146" transform="translate(371.113 313.869)" fill="none" stroke="#263238" stroke-linecap="round" stroke-linejoin="round" stroke-miterlimit="10" stroke-width="0.5"/><path d="M382.091,339.461s-3.743-1.911-7.577-3.806" fill="none" stroke="#263238" stroke-linecap="round" stroke-linejoin="round" stroke-miterlimit="10" stroke-width="0.5"/><path d="M379.541,334.577a53.584,53.584,0,0,1,4.33-10.019" fill="none" stroke="#263238" stroke-linecap="round" stroke-linejoin="round" stroke-miterlimit="10" stroke-width="0.5"/><path d="M384.306,362.106a41.6,41.6,0,0,0-8.726-8.251" fill="none" stroke="#263238" stroke-linecap="round" stroke-linejoin="round" stroke-miterlimit="10" stroke-width="0.5"/><path d="M385.587,365.675a46.973,46.973,0,0,1,2.41-7.43c1.439-3.187,1.651-3.6,1.651-3.6" fill="none" stroke="#263238" stroke-linecap="round" stroke-linejoin="round" stroke-miterlimit="10" stroke-width="0.5"/><path d="M391.634,387.468a39.2,39.2,0,0,1,4.82-5,25.76,25.76,0,0,0,3.13-2.722" fill="none" stroke="#263238" stroke-linecap="round" stroke-linejoin="round" stroke-miterlimit="10" stroke-width="0.5"/><path d="M391.838,382.937a44.558,44.558,0,0,0-4.028-5.516,39.147,39.147,0,0,0-4.741-4.392" fill="none" stroke="#263238" stroke-linecap="round" stroke-linejoin="round" stroke-miterlimit="10" stroke-width="0.5"/><path d="M390.541,397.146a11.411,11.411,0,0,0-2-5.637c-1.842-2.429-4.012-5.655-4.895-6.924" fill="none" stroke="#263238" stroke-linecap="round" stroke-linejoin="round" stroke-miterlimit="10" stroke-width="0.5"/><path d="M412.814,434.359H380.6a3.041,3.041,0,0,1-3.041-3.041v-28.7h38.3v28.7A3.043,3.043,0,0,1,412.814,434.359Z" fill="#263238"/><path d="M415.522,407.612H377.556a3,3,0,0,1-3-3h0a3,3,0,0,1,3-3h37.966a3,3,0,0,1,3,3h0A3,3,0,0,1,415.522,407.612Z" fill="#263238"/><path d="M140.034,286.486l26.79,22.962L141.293,434.359h1.727l28.4-122.615,26.024,21.814L160.7,434.209l2.3-.383,38.652-97.971,107.54,97.971h65.442L298.09,283.807Z" opacity="0.2"/><path d="M143.02,434.359h-1.727L138.7,284.35h6.911Z" fill="#263238" stroke="#263238" stroke-linecap="round" stroke-linejoin="round" stroke-miterlimit="10" stroke-width="1"/><path d="M291.878,434.359H290.15L287.559,284.35h6.91Z" fill="#263238" stroke="#263238" stroke-linecap="round" stroke-linejoin="round" stroke-miterlimit="10" stroke-width="1"/><rect width="166.36" height="3.894" transform="translate(136.062 282.032)" fill="#fff" stroke="#263238" stroke-linecap="round" stroke-linejoin="round" stroke-miterlimit="10" stroke-width="1"/><path d="M98.5,362.569l-3.024,6.385s3.7,4.032,5.377,4.032,2.352-1.68,4.368-2.352,5.377-7.057,5.377-7.057-2.016-3.36-4.032-3.7-5.04-1.344-6.721-1.68S98.5,362.569,98.5,362.569Z" fill="#fff" stroke="#263238" stroke-linecap="round" stroke-linejoin="round" stroke-miterlimit="10" stroke-width="1"/><path d="M98.5,362.569l2.016,3.36v3.024s2.016,1.008,2.688,0,3.7-4.368,3.7-4.368l-1.344-3.024" fill="none" stroke="#263238" stroke-linecap="round" stroke-linejoin="round" stroke-miterlimit="10" stroke-width="1"/><line x1="3.697" y1="0.672" transform="translate(96.815 368.281)" fill="none" stroke="#263238" stroke-linecap="round" stroke-linejoin="round" stroke-miterlimit="10" stroke-width="1"/><path d="M156.4,423.025l-6.792,1.945s-.587,5.439.522,6.7,2.815.657,4.651,1.727,8.85-.622,8.85-.622,1.192-3.733.113-5.469-2.319-4.673-3.176-6.156S156.4,423.025,156.4,423.025Z" fill="#fff" stroke="#263238" stroke-linecap="round" stroke-linejoin="round" stroke-miterlimit="10" stroke-width="1"/><path d="M156.4,423.025l-1.192,3.733-2.271,2s.574,2.18,1.775,2.019,5.721-.109,5.721-.109l1.384-3.006" fill="none" stroke="#263238" stroke-linecap="round" stroke-linejoin="round" stroke-miterlimit="10" stroke-width="1"/><line x1="1.936" y1="3.22" transform="translate(151.003 425.535)" fill="none" stroke="#263238" stroke-linecap="round" stroke-linejoin="round" stroke-miterlimit="10" stroke-width="1"/><path d="M87.743,361.225s-5.713,3.7-4.7,5.713,1.68,3.36,2.688,4.032,4.032,1.68,5.04,1.008,3.36-2.352,3.7-5.04,1.344-3.024.336-4.368S87.743,361.225,87.743,361.225Z" fill="#fff" stroke="#263238" stroke-linecap="round" stroke-linejoin="round" stroke-miterlimit="10" stroke-width="1"/><path d="M83.038,366.937l4.032,2.688,3.36-.336,1.344-3.7a1.974,1.974,0,0,0-2.016-2.016,4.415,4.415,0,0,0-3.024,1.008l.672,2.016" fill="none" stroke="#263238" stroke-linecap="round" stroke-linejoin="round" stroke-miterlimit="10" stroke-width="1"/><path d="M112.609,356.52s-5.041,4.7-4.369,8.065,7.057,6.049,7.057,6.049l7.729-4.368-2.352-6.049-5.04-2.688Z" fill="#fff" stroke="#263238" stroke-linecap="round" stroke-linejoin="round" stroke-miterlimit="10" stroke-width="1"/><path d="M108.24,364.585l5.377,2.016,6.049-2.016-2.353-5.377" fill="none" stroke="#263238" stroke-linecap="round" stroke-linejoin="round" stroke-miterlimit="10" stroke-width="1"/><path d="M112.609,356.52l-.336,7.057,4.032,1.344" fill="none" stroke="#263238" stroke-linecap="round" stroke-linejoin="round" stroke-miterlimit="10" stroke-width="1"/><path d="M127.73,419.694s-5.041,4.7-4.368,8.065,7.057,6.049,7.057,6.049l7.729-4.368-2.352-6.049-5.04-2.688Z" fill="#fff" stroke="#263238" stroke-linecap="round" stroke-linejoin="round" stroke-miterlimit="10" stroke-width="1"/><path d="M123.362,427.759l5.376,2.016,6.049-2.016-2.352-5.376" fill="none" stroke="#263238" stroke-linecap="round" stroke-linejoin="round" stroke-miterlimit="10" stroke-width="1"/><path d="M127.73,419.694l-.336,7.057,4.033,1.344" fill="none" stroke="#263238" stroke-linecap="round" stroke-linejoin="round" stroke-miterlimit="10" stroke-width="1"/><path d="M94.127,351.48s-5.04,4.7-4.368,8.065,7.057,6.049,7.057,6.049l7.729-4.368-2.352-6.049-5.04-2.688Z" fill="#fff" stroke="#263238" stroke-linecap="round" stroke-linejoin="round" stroke-miterlimit="10" stroke-width="1"/><path d="M89.759,359.544l5.376,2.017,6.049-2.017-2.352-5.376" fill="none" stroke="#263238" stroke-linecap="round" stroke-linejoin="round" stroke-miterlimit="10" stroke-width="1"/><path d="M94.127,351.48l-.336,7.056,4.033,1.344" fill="none" stroke="#263238" stroke-linecap="round" stroke-linejoin="round" stroke-miterlimit="10" stroke-width="1"/><path d="M122.322,434.359H82.443l-5.981-66.105H128.3Z" fill="#263238" stroke="#263238" stroke-linecap="round" stroke-linejoin="round" stroke-miterlimit="10" stroke-width="1"/><path d="M95.807,423.391s-5.712,3.7-4.7,5.713,1.68,3.36,2.688,4.032,4.032,1.68,5.04,1.008,3.36-2.352,3.7-5.04,1.344-3.024.336-4.368S95.807,423.391,95.807,423.391Z" fill="#fff" stroke="#263238" stroke-linecap="round" stroke-linejoin="round" stroke-miterlimit="10" stroke-width="1"/><path d="M91.1,429.1l4.032,2.688,3.36-.336,1.344-3.7a1.974,1.974,0,0,0-2.016-2.016,4.415,4.415,0,0,0-3.024,1.008l.672,2.016" fill="none" stroke="#263238" stroke-linecap="round" stroke-linejoin="round" stroke-miterlimit="10" stroke-width="1"/><path d="M201.544,236.315a2.239,2.239,0,1,1-2.212-1.89A2.07,2.07,0,0,1,201.544,236.315Z" fill="gray" stroke="#263238" stroke-linecap="round" stroke-linejoin="round" stroke-miterlimit="10" stroke-width="1"/><path d="M203.668,242.075a2.239,2.239,0,1,1-2.212-1.89A2.07,2.07,0,0,1,203.668,242.075Z" fill="gray" stroke="#263238" stroke-linecap="round" stroke-linejoin="round" stroke-miterlimit="10" stroke-width="1"/><path d="M205.792,247.835a2.239,2.239,0,1,1-2.212-1.89A2.07,2.07,0,0,1,205.792,247.835Z" fill="gray" stroke="#263238" stroke-linecap="round" stroke-linejoin="round" stroke-miterlimit="10" stroke-width="1"/><path d="M207.916,253.6a2.239,2.239,0,1,1-2.212-1.89A2.07,2.07,0,0,1,207.916,253.6Z" fill="gray" stroke="#263238" stroke-linecap="round" stroke-linejoin="round" stroke-miterlimit="10" stroke-width="1"/><path d="M177.964,281.662H162.816l-2.272-25.11h19.692Z" fill="#263238" stroke="#263238" stroke-linecap="round" stroke-linejoin="round" stroke-miterlimit="10" stroke-width="1"/><path d="M179.489,264.807l-17.4,8.862.723,7.993h8.108l7.858-9.036Z" fill="#c6ff00" stroke="#263238" stroke-linecap="round" stroke-linejoin="round" stroke-miterlimit="10" stroke-width="1"/><rect width="23.199" height="5.459" transform="translate(158.791 253.55)" fill="#c6ff00" stroke="#263238" stroke-linecap="round" stroke-linejoin="round" stroke-miterlimit="10" stroke-width="1"/><path d="M222.781,281.948H195.527a3.455,3.455,0,1,1,0-6.91h27.254a3.455,3.455,0,1,1,0,6.91Z" fill="#263238" stroke="#263238" stroke-linecap="round" stroke-linejoin="round" stroke-miterlimit="10" stroke-width="1"/><path d="M295.258,282.032H211.371l-20.007-54.459h83.888Z" fill="#263238" stroke="#263238" stroke-linecap="round" stroke-linejoin="round" stroke-miterlimit="10" stroke-width="1"/><path d="M289.935,276.369H218.3l-17.084-46.5h71.632Z" fill="gray" stroke="#263238" stroke-linecap="round" stroke-linejoin="round" stroke-miterlimit="10" stroke-width="1"/><path d="M304.014,301.483a56.926,56.926,0,0,1-6.589,8.009,104.417,104.417,0,0,0-19.582,23.858c-7.527,12.747-12.765,25.783-17.74,37.059s-13.956,32.1-18.516,38.439-7.558,9.734-7.558,9.734-7.45.171-16.272-.61-12.465-2.375-12.576-.077,5.962,8.616,10.338,9.714,9.965,2.786,11.319,4.091,3.054,2.806,5.226,1.848,8.822-10.2,16.217-16.579,16.206-12.682,24.189-27.534,8.394-23.337,13.979-28.913,11.5-14.327,18.635-18.943,28.455-13.152,35.263-22.036,3.256-19.687-3.29-23.548S309.141,290.746,304.014,301.483Z" fill="#263238" stroke="#263238" stroke-linecap="round" stroke-linejoin="round" stroke-miterlimit="10" stroke-width="1"/><path d="M246.857,399.483a76.4,76.4,0,0,1-5.269,9.365c-4.559,6.335-7.558,9.734-7.558,9.734s-7.45.171-16.272-.61-12.465-2.375-12.576-.077,5.962,8.616,10.338,9.714,9.965,2.786,11.319,4.091,3.053,2.806,5.226,1.848,8.822-10.2,16.217-16.579c3.441-2.966,7.189-5.929,11.017-9.733A23.951,23.951,0,0,1,246.857,399.483Z" fill="#fff" stroke="#263238" stroke-linecap="round" stroke-linejoin="round" stroke-miterlimit="10" stroke-width="1"/><path d="M232.064,433.548a13.988,13.988,0,0,0,3.149-2.894c-5.976-1.192-9.068-4.2-11.805-4.967a29.422,29.422,0,0,1-7.111-3.179l2.979-4.41q-.752-.059-1.519-.126c-8.821-.781-12.465-2.375-12.576-.077s5.962,8.616,10.338,9.714,9.965,2.786,11.319,4.091S229.892,434.506,232.064,433.548Z" fill="#c6ff00" stroke="#263238" stroke-linecap="round" stroke-linejoin="round" stroke-miterlimit="10" stroke-width="1"/><path d="M242.426,329.639a69.292,69.292,0,0,0,5.132,14.512c3.54,7.079,11.327,14.512,16.99,18.76s23.892,20.529,32.918,33.449c1.133,1.622-3.186,7.079-8.495,11.858s-7.61,6.548-4.779,7.433,9.557.531,16.282-5.132,11.15-9.38,13.273-13.981c1.062-2.3-4.778-5.132-8.318-8.141s-16.636-22.83-20.706-32.033-14.335-22.3-21.945-26.9" fill="#263238" stroke="#263238" stroke-linecap="round" stroke-linejoin="round" stroke-miterlimit="10" stroke-width="1"/><path d="M313.749,396.537c1.062-2.3-4.778-5.133-8.318-8.141-2.976-2.53-12.707-16.944-18.15-26.94L275.234,372.1c7.487,6.928,16.631,16.238,22.233,24.256,1.133,1.622-3.186,7.079-8.495,11.858s-7.61,6.548-4.779,7.433,9.557.531,16.282-5.132S311.625,401.139,313.749,396.537Z" fill="#fff" stroke="#263238" stroke-linecap="round" stroke-linejoin="round" stroke-miterlimit="10" stroke-width="1"/><path d="M310.111,391.842c-.951,1.421-2.187,3.346-3.619,5.757-3.363,5.663-12.565,12.919-13.8,11.681a12.5,12.5,0,0,1-1.862-2.8c-.6.584-1.219,1.165-1.855,1.737-5.309,4.778-7.61,6.548-4.779,7.433s9.557.531,16.282-5.132,11.15-9.38,13.273-13.981C314.393,395.141,312.493,393.549,310.111,391.842Z" fill="#c6ff00" stroke="#263238" stroke-linecap="round" stroke-linejoin="round" stroke-miterlimit="10" stroke-width="1"/><path d="M177.7,258.67H140.373L91.5,127.514h37.328Z" fill="#263238"/><path d="M177.7,258.67H140.373L91.5,127.514h37.328Z" fill="#fff" opacity="0.2"/><path d="M118.859,159.545h-9.6a3.465,3.465,0,0,1-2.974-2.167l-3.706-9.946a1.455,1.455,0,0,1,1.359-2.167h9.6a3.465,3.465,0,0,1,2.974,2.167l3.706,9.946A1.455,1.455,0,0,1,118.859,159.545Z" fill="#263238"/><path d="M131.3,134.143H93.973l-2.47-6.629h37.328Z" fill="#263238"/><line x2="1.072" y2="2.876" transform="translate(106.727 135.229)" fill="none" stroke="#263238" stroke-linecap="round" stroke-linejoin="round" stroke-miterlimit="10" stroke-width="1"/><line x2="1.072" y2="2.876" transform="translate(108.166 135.229)" fill="none" stroke="#263238" stroke-linecap="round" stroke-linejoin="round" stroke-miterlimit="10" stroke-width="1"/><line x2="1.072" y2="2.876" transform="translate(109.604 135.229)" fill="none" stroke="#263238" stroke-linecap="round" stroke-linejoin="round" stroke-miterlimit="10" stroke-width="1"/><line x2="1.072" y2="2.876" transform="translate(111.042 135.229)" fill="none" stroke="#263238" stroke-linecap="round" stroke-linejoin="round" stroke-miterlimit="10" stroke-width="1"/><line x2="1.072" y2="2.876" transform="translate(112.481 135.229)" fill="none" stroke="#263238" stroke-linecap="round" stroke-linejoin="round" stroke-miterlimit="10" stroke-width="1"/><line x2="1.072" y2="2.876" transform="translate(113.919 135.229)" fill="none" stroke="#263238" stroke-linecap="round" stroke-linejoin="round" stroke-miterlimit="10" stroke-width="1"/><line x2="1.072" y2="2.876" transform="translate(115.358 135.229)" fill="none" stroke="#263238" stroke-linecap="round" stroke-linejoin="round" stroke-miterlimit="10" stroke-width="1"/><line x2="1.072" y2="2.876" transform="translate(116.796 135.229)" fill="none" stroke="#263238" stroke-linecap="round" stroke-linejoin="round" stroke-miterlimit="10" stroke-width="1"/><line x2="1.072" y2="2.876" transform="translate(118.234 135.229)" fill="none" stroke="#263238" stroke-linecap="round" stroke-linejoin="round" stroke-miterlimit="10" stroke-width="1"/><line x2="1.072" y2="2.876" transform="translate(119.673 135.229)" fill="none" stroke="#263238" stroke-linecap="round" stroke-linejoin="round" stroke-miterlimit="10" stroke-width="1"/><path d="M115.754,153.309l-9.037-5.731a.571.571,0,0,0-.6-.06.385.385,0,0,0-.087.51l4.141,8.934a.866.866,0,0,0,.557.458.588.588,0,0,0,.14.017.337.337,0,0,0,.345-.224l.954-2.938,3.6-.041a.332.332,0,0,0,.357-.348A.759.759,0,0,0,115.754,153.309Z" fill="#fff"/><path d="M115.57,153.711l-9.037-5.731,4.141,8.934,1.025-3.159Z" fill="#263238"/><path d="M132.462,153.711l-9.037-5.731,4.141,8.934,1.025-3.159Z" fill="#fff"/><path d="M137.092,158.792l-.815-1.84-1.063,1.547Z" fill="#fff"/><path d="M158.933,217.407l-.815-1.839-1.064,1.547Z" fill="#fff"/><path d="M165.636,235.4l-.816-1.839-1.063,1.547Z" fill="#fff"/><path d="M172.509,253.843l-.815-1.84-1.063,1.548Z" fill="#fff"/><path d="M134.019,196.638l-.815-1.84-1.063,1.547Z" fill="#fff"/><path d="M141.758,217.407l-.815-1.839-1.063,1.547Z" fill="#fff"/><path d="M148.461,235.4l-.815-1.839-1.064,1.547Z" fill="#fff"/><path d="M155.335,253.843,154.52,252l-1.064,1.548Z" fill="#fff"/><path d="M115.749,178.528l1.572,1.016,4.317-9.016-1.572-1.016Z" fill="#fff"/><path d="M117.687,169.7c-2.285-1.786-2.446-2.142-1.886-4.163-1.183,1.619-1.528,1.648-4.039.334,2.285,1.786,2.445,2.141,1.886,4.163C114.831,168.419,115.176,168.39,117.687,169.7Z" fill="#fff"/><path d="M125.227,170.674c-1.412-1.1-1.511-1.323-1.165-2.573-.731,1-.944,1.018-2.5.207,1.412,1.1,1.511,1.323,1.165,2.573C123.462,169.88,123.675,169.862,125.227,170.674Z" fill="#fff"/><path d="M124.8,174.911c-1.008-.788-1.079-.945-.832-1.836-.522.714-.674.727-1.781.148,1.008.788,1.079.944.832,1.836C123.54,174.345,123.692,174.332,124.8,174.911Z" fill="#fff"/><path d="M147.461,214.881l.972.686,4.317-9.017-.973-.686Z" fill="#fff"/><path d="M143.841,176.2l-7.974-5.057,3.654,7.883.9-2.787Z" fill="#fff"/><path d="M137.843,176.665c-2.923,0-5.943-1.723-6.733-3.841s.947-3.841,3.87-3.841,5.943,1.723,6.732,3.841S140.766,176.665,137.843,176.665Zm-2.691-7.222c-2.669,0-4.275,1.516-3.581,3.381s3.431,3.38,6.1,3.38,4.275-1.516,3.581-3.38S137.821,169.443,135.152,169.443Z" fill="#fff"/><path d="M134.33,175.9a2.094,2.094,0,0,1-1.793-1.306.878.878,0,0,1,.819-1.306,2.092,2.092,0,0,1,1.793,1.306A.877.877,0,0,1,134.33,175.9Zm-.8-2.151a.568.568,0,0,0-.53.845,1.354,1.354,0,0,0,1.16.845.568.568,0,0,0,.53-.845A1.353,1.353,0,0,0,133.528,173.746Z" fill="#fff"/><path d="M134.456,177.266l-.317-.434a1.3,1.3,0,0,0,.934-1.04,1.871,1.871,0,0,0-.343-1.122l.374-.158a2.434,2.434,0,0,1,.458,1.476A1.55,1.55,0,0,1,134.456,177.266Z" fill="#fff"/><path d="M129.457,190.269l-5.565-4.054-1.181,1.882,5.565,4.054Z" fill="#fff"/><path d="M120.543,195.52l.911.664,2.036-3.246a.665.665,0,0,1-.185-.767c.157-.25.561-.25.9,0a.742.742,0,0,1,.337.9.558.558,0,0,1-.73.1l-2.037,3.246.846.617,5.033-1.413.314-2.97-5.5-4-2.529,1.356Z" fill="#fff"/><line x2="32.129" transform="translate(115.278 182.793)" fill="none" stroke="#263238" stroke-linecap="round" stroke-linejoin="round" stroke-miterlimit="10" stroke-width="1"/><path d="M143.222,186.215l-1.181,1.882,5.565,4.054,1.181-1.882Z" fill="#fff"/><path d="M139.279,190.008l.593,5.512.911.664,2.037-3.246a.665.665,0,0,1-.185-.767c.157-.25.561-.25.9,0a.742.742,0,0,1,.337.9.558.558,0,0,1-.73.1l-2.037,3.246.846.617,5.033-1.413.314-2.97-5.495-4Z" fill="#fff"/><path d="M137.9,191.625c.052-.387.108-.809.147-1.279a3.342,3.342,0,0,0-.789-2.507,5.129,5.129,0,0,0-2.444-1.51c-.152-.038-.267.044-.252.184a.413.413,0,0,0,.3.321,4.3,4.3,0,0,1,2,1.228,2.744,2.744,0,0,1,.623,2.068c-.038.464-.094.879-.145,1.259-.268,2-.43,3.2,2.889,5.194a.353.353,0,0,0,.18.055.17.17,0,0,0,.169-.1.334.334,0,0,0-.184-.366C137.526,194.443,137.636,193.618,137.9,191.625Z" fill="#fff"/><path d="M123.681,205l.195.522a22.541,22.541,0,0,0,1,2.354l.935-.228a15.79,15.79,0,0,1-.694-1.6h3.969l3.321,8.914h-1.488l.389,1.045h4.021l-.389-1.045h-1.488l-3.321-8.914H134c.21.564.536,1.442.7,1.876l1.046,0c-.249-.673-.893-2.4-.893-2.4l-.2-.522H123.681Z" fill="#fff"/><path d="M144.563,229.725c.854,2.292-1.026,4.15-4.2,4.15s-6.439-1.858-7.293-4.15,1.027-4.15,4.2-4.15S143.709,227.432,144.563,229.725Z" fill="#fff" opacity="0.44"/><path d="M144.563,229.725c.854,2.292-1.026,4.15-4.2,4.15s-6.439-1.858-7.293-4.15,1.027-4.15,4.2-4.15S143.709,227.432,144.563,229.725Z" fill="none" stroke="#fff" stroke-miterlimit="10" stroke-width="1"/><path d="M156.393,229.843l3.767-6.848c.156-.284.559-.344.963-.145h0a1.118,1.118,0,0,1,.687,1.134l-2.028,7.567Z" fill="#fff"/><path d="M155.771,230.418c1.483-.2,4.382,1.068,4.463,2.985a1.173,1.173,0,0,1-.673,1.032,8.551,8.551,0,0,1-4.217.729,1.18,1.18,0,0,0,.4-1.26,15.2,15.2,0,0,0-.686-1.622c-.274-.769-.129-1.806.71-1.864" fill="#fff"/><path d="M147.923,245.449a5.428,5.428,0,0,0-1.368-1.872l-1.137,1.813a6.03,6.03,0,0,1,1.576,2.121,15.608,15.608,0,0,0,1.133,2.09l1.115-1.777A15.207,15.207,0,0,1,147.923,245.449Z" fill="#fff"/><path d="M146.609,247.545a5.428,5.428,0,0,0-1.368-1.872l-1.137,1.813a6.017,6.017,0,0,1,1.575,2.121,15.725,15.725,0,0,0,1.133,2.09l1.115-1.777A15.4,15.4,0,0,1,146.609,247.545Z" fill="#fff"/><path d="M148.308,245.415a15.608,15.608,0,0,0,1.133,2.09l1.642-2.618-3.672-2.675-.679,1.083A6.022,6.022,0,0,1,148.308,245.415Z" fill="#fff"/><path d="M145.294,249.64a5.416,5.416,0,0,0-1.368-1.872l-.952,1.517.162,3.458a.454.454,0,0,0,.534.385l2.92-1.145A15.5,15.5,0,0,1,145.294,249.64ZM144,251.95l-.086-1.839,1.671,1.217Z" fill="#fff"/><path d="M159.7,247.082l-1.253,2,6.462,4.708,1.253-2,.392.285,2.954-4.708-7.245-5.278L159.31,246.8Zm4.784,5.564-4.9-3.566.9-1.427,4.9,3.566Z" fill="#fff"/><path d="M98.711,129.266l.237.635-.9,1.1,1.719,1.1.236.634L97.3,131Z" fill="#fff"/><path d="M96.454,129.266l.236.635-.9,1.1,1.719,1.1.237.634L95.039,131Z" fill="#fff"/><path d="M250,206.171H172.791l-23.6-65.838H226.4Z" fill="#263238"/><path d="M244.523,202.58h-68.83l-21.027-58.656H223.5Z" fill="#c6ff00"/><path d="M231.434,166.07l-11.383-8.38-8.989,23.343-23.308-6.584-12.061,28.13h68.83Z" fill="#fff"/><path d="M184.01,156.493c-1.6-4.462-6.514-8.08-10.977-8.08s-6.783,3.617-5.183,8.08,6.514,8.08,10.977,8.08S185.61,160.956,184.01,156.493Z" fill="#fff"/><path d="M258,194.837H180.791L157.189,129H234.4Z" fill="#263238"/><path d="M252.523,191.246h-68.83l-21.027-58.655H231.5Z" fill="#fff"/><path d="M239.434,154.736l-11.383-8.379L219.062,169.7l-23.308-6.583-12.061,28.13h68.83Z" fill="#fff"/><path d="M192.01,145.16c-1.6-4.462-6.514-8.08-10.977-8.08s-6.783,3.618-5.183,8.08,6.514,8.08,10.977,8.08S193.61,149.623,192.01,145.16Z" fill="#fff"/><path d="M258.346,118.67l1.859,4.5h-.538a8.106,8.106,0,0,0-1.046-1.7,4.843,4.843,0,0,0-1.611-1.211,5.03,5.03,0,0,0-2.061-.389h-2.705l5.364,14.67a5.567,5.567,0,0,0,1.19,2.209,2.941,2.941,0,0,0,1.874.6h.666l.192.524h-8.142l-.192-.524h.68q1.218,0,1.458-.736a4.333,4.333,0,0,0-.445-2.067l-5.364-14.67h-2.308a5.682,5.682,0,0,0-1.839.2,1.559,1.559,0,0,0-.882,1.034,3.662,3.662,0,0,0,.133,2.067h-.538l-1.42-4.5h15.675Z"/><line x2="5.878" transform="translate(270.036 127.715)" fill="none" stroke="#263238" stroke-miterlimit="10" stroke-width="0.5"/><path d="M275.721,143.284H246.159L235.21,113.343h29.562Z" fill="none" stroke="#263238" stroke-miterlimit="10" stroke-width="0.5"/><path d="M241.949,128.823h-2.215l-.81-2.215h2.215Z" fill="#fff" stroke="#263238" stroke-miterlimit="10" stroke-width="0.5"/><path d="M271.548,128.823h-2.215l-.81-2.215h2.215Z" fill="#fff" stroke="#263238" stroke-miterlimit="10" stroke-width="0.5"/><path d="M236.753,114.614h-2.215l-.81-2.215h2.215Z" fill="#fff" stroke="#263238" stroke-miterlimit="10" stroke-width="0.5"/><path d="M266.353,114.614h-2.216l-.81-2.215h2.216Z" fill="#fff" stroke="#263238" stroke-miterlimit="10" stroke-width="0.5"/><path d="M251.564,114.614h-2.215l-.81-2.215h2.215Z" fill="#fff" stroke="#263238" stroke-miterlimit="10" stroke-width="0.5"/><path d="M247.577,144.214h-2.215l-.81-2.216h2.215Z" fill="#fff" stroke="#263238" stroke-miterlimit="10" stroke-width="0.5"/><path d="M277.176,144.214h-2.215l-.81-2.216h2.215Z" fill="#fff" stroke="#263238" stroke-miterlimit="10" stroke-width="0.5"/><line x2="2.149" y2="5.878" transform="translate(261.111 143.811)" fill="none" stroke="#263238" stroke-miterlimit="10" stroke-width="0.5"/><path d="M262.387,144.214h-2.215l-.81-2.216h2.215Z" fill="#fff" stroke="#263238" stroke-miterlimit="10" stroke-width="0.5"/><path d="M264.8,150.8H262.58l-.81-2.215h2.215Z" fill="#263238"/><line x2="24.833" transform="translate(244.386 137.667)" fill="none" stroke="#263238" stroke-miterlimit="10" stroke-width="0.5"/><path d="M277.08,127.715a1.851,1.851,0,0,0-1.593-1.167.788.788,0,0,0-.74,1.167,1.851,1.851,0,0,0,1.593,1.167A.788.788,0,0,0,277.08,127.715Z" fill="#263238"/><path d="M220,140.011l-33.661,2.69-7.341.587,4.072,6,3.831,5.648,7.341-.587-1.559-2.3-2.272-3.348,26.522-2.12-1.712,3.672-1.166,2.512,7.343-.587L224.274,146l3.065-6.574Z"/><path d="M210.879,159.452l-5.342,11.558-5.9-8.7-1.289-1.9,3.941-.289.085,1.062,2.749-1.859,2.748-1.859-2.447-1.139-.562-.262-.977-.454-2.032-.945.088,1.1-6.4.511h0l-7.343.587h0l.007.007.016.024.225.332.128.188,1.44,2.123,2.279,3.361.054.078,10.037,14.8,1.494,2.2,2.694,3.971L208.6,179.6l1.126-2.413,8.5-18.32Z" fill="#e69724"/><path d="M236.39,234.377c.11-.017.221-.03.33-.05a11.294,11.294,0,0,1,4.906.068,6.264,6.264,0,0,1,3.194,1.9,6.973,6.973,0,0,1,1.16,1.849,15.308,15.308,0,0,1,.786,2.308q1.2,4.562,2.4,9.125a5.309,5.309,0,0,0,.893,1.852,6.483,6.483,0,0,0,1.065,1.081c.254.211.513.416.769.625a1.434,1.434,0,0,1,.388.453.727.727,0,0,1-.04.8c-.278.4-.562.8-.838,1.207-.589.863-1.173,1.728-1.761,2.591a1.234,1.234,0,0,1-.485.452.924.924,0,0,1-.817.01,10.361,10.361,0,0,1-2.705-1.79c-.178-.164-.364-.318-.558-.488l-.121.2a14.255,14.255,0,0,1-1.693,2.395,7.9,7.9,0,0,1-2.748,1.972,12.89,12.89,0,0,1-2.713.845,6.979,6.979,0,0,1-3.863-.27,6.167,6.167,0,0,1-3.049-2.532,8.892,8.892,0,0,1-1.006-2.233,9.546,9.546,0,0,1-.43-2.5,7.688,7.688,0,0,1,1.966-5.455,10.348,10.348,0,0,1,2.634-2.113,20.391,20.391,0,0,1,2.632-1.285q1.172-.474,2.348-.934c.56-.219,1.124-.425,1.687-.637.021-.008.041-.02.068-.033-.008-.044-.012-.084-.022-.123-.149-.565-.291-1.132-.452-1.693a5.278,5.278,0,0,0-.461-1.127,2.585,2.585,0,0,0-2.258-1.415,4.16,4.16,0,0,0-3.193,1.211,3.209,3.209,0,0,0-.967,2.55,1.379,1.379,0,0,1-.1.623.757.757,0,0,1-.618.492q-.9.128-1.8.265c-.489.074-.978.153-1.467.228-.349.054-.7.11-1.048.159a.867.867,0,0,1-.935-.454.777.777,0,0,1-.078-.269,8.006,8.006,0,0,1,2.9-7,11.8,11.8,0,0,1,2.71-1.708,14.415,14.415,0,0,1,1.827-.71,1.724,1.724,0,0,0,.161-.068Zm5.364,13.077c-.067.018-.123.031-.178.047l-.931.28a11.126,11.126,0,0,0-1.7.68,6.757,6.757,0,0,0-1.609,1.074,3.739,3.739,0,0,0-1.269,2.363,5.034,5.034,0,0,0,.7,3.205,2.726,2.726,0,0,0,1.165,1.1,2.77,2.77,0,0,0,2.488-.063,3.413,3.413,0,0,0,1.477-1.378,5.45,5.45,0,0,0,.732-2.4,8.257,8.257,0,0,0-.277-2.66c-.167-.694-.357-1.382-.537-2.072C241.8,247.581,241.777,247.527,241.754,247.454Z"/><path d="M243.882,268.153c-.538.12-.966.235-1.4.309-.55.093-1.1.164-1.659.227a18.248,18.248,0,0,1-3.33.049,25.069,25.069,0,0,1-10.962-3.528c-.3-.185-.6-.383-.884-.587a.953.953,0,0,1-.252-.266.273.273,0,0,1,.154-.414.588.588,0,0,1,.4-.008c.457.139.915.274,1.373.409a47.455,47.455,0,0,0,4.788,1.183,27.626,27.626,0,0,0,5.268.482,20.41,20.41,0,0,0,2.252-.128c.478-.058.955-.127,1.433-.192a22.619,22.619,0,0,0,3.2-.743c.519-.149,1.025-.348,1.532-.538a30.321,30.321,0,0,0,7.783-4.418c.52-.4,1.024-.814,1.533-1.224a.911.911,0,0,1,.4-.21.321.321,0,0,1,.4.251.7.7,0,0,1-.022.435,4.2,4.2,0,0,1-.274.612,12.444,12.444,0,0,1-1.431,1.953,19.88,19.88,0,0,1-5.924,4.628c-.579.3-1.175.566-1.773.826-.371.162-.758.289-1.143.419C244.824,267.857,244.3,268.019,243.882,268.153Z"/><path d="M255.293,257.1c-.415.146-.9.316-1.391.49-.41.146-.818.3-1.227.443a.527.527,0,0,1-.068.02c-.068.014-.143.048-.2-.018a.21.21,0,0,1-.016-.234,1.5,1.5,0,0,1,.356-.458,6.685,6.685,0,0,1,1.218-.9,5.9,5.9,0,0,1,1.36-.62c.4-.114.787-.25,1.189-.338a5.475,5.475,0,0,1,1.415-.163c.094,0,.187.016.281.026a.594.594,0,0,1,.532.47,5.1,5.1,0,0,1,.2,1.182,8.715,8.715,0,0,1-.172,2.582,6.559,6.559,0,0,1-.766,1.95,1.123,1.123,0,0,1-.347.394c-.149.094-.254.061-.281-.111a1.291,1.291,0,0,1,.007-.367,18.724,18.724,0,0,0,.2-2.34c.005-.388-.007-.777-.035-1.164a2,2,0,0,0-.138-.618.621.621,0,0,0-.493-.4,1.994,1.994,0,0,0-.7,0C255.936,256.964,255.655,257.029,255.293,257.1Z"/><rect width="60.173" height="2.832" transform="translate(297.998 408.041)" fill="#fff" stroke="#263238" stroke-linecap="round" stroke-linejoin="round" stroke-miterlimit="10" stroke-width="1"/><path d="M303.484,332.117,292.953,432.78a.81.81,0,0,0,.806.889h0a.809.809,0,0,0,.8-.692l15.65-100.861h-6.726Z" fill="#fff" stroke="#263238" stroke-linecap="round" stroke-linejoin="round" stroke-miterlimit="10" stroke-width="1"/><path d="M351.622,332.117,362.153,432.78a.809.809,0,0,1-.8.889h0a.809.809,0,0,1-.8-.692L344.9,332.116h6.725Z" fill="#fff" stroke="#263238" stroke-linecap="round" stroke-linejoin="round" stroke-miterlimit="10" stroke-width="1"/><path d="M332.508,332.117l.527,100.739a.81.81,0,0,1-.809.814h-.012a.809.809,0,0,1-.808-.767l-5.623-100.786Z" fill="#fff" stroke="#263238" stroke-linecap="round" stroke-linejoin="round" stroke-miterlimit="10" stroke-width="1"/><path d="M354.971,333.179H299.25a4.969,4.969,0,0,1-4.969-4.969v-6.345a4.969,4.969,0,0,1,4.969-4.969h55.722a4.969,4.969,0,0,1,4.969,4.969v6.345A4.971,4.971,0,0,1,354.971,333.179Z" fill="#c6ff00"/><g clip-path="url(#a)"><path d="M354.971,316.9H300.525L298.9,320.3s50.279.872,50.279,3.778.872,6.685-9.01,6.685c-8,0-34.85.381-44.789.526a4.973,4.973,0,0,0,1.44,1.228l2.917.659h55.234a4.969,4.969,0,0,0,4.969-4.969v-6.345A4.969,4.969,0,0,0,354.971,316.9Z" opacity="0.2"/></g><path d="M354.971,333.179H299.25a4.969,4.969,0,0,1-4.969-4.969v-6.345a4.969,4.969,0,0,1,4.969-4.969h55.722a4.969,4.969,0,0,1,4.969,4.969v6.345A4.971,4.971,0,0,1,354.971,333.179Z" fill="none" stroke="#263238" stroke-linecap="round" stroke-linejoin="round" stroke-miterlimit="10" stroke-width="1"/><path d="M243.842,336.011c-1.239-4.071-6.371-12.212,18.229-29.2,13.041-9.007,41.236-15.928,41.236-15.928l2.655-3.009s7.61,7.964,22.476,7.433,24.069-7.079,25.839-6.548,1.947,5.132,1.239,13.8-1.593,13.1-8.495,15.22-22.122,2.832-33.1,2.655a157.909,157.909,0,0,1-16.282-.885s-23.538,14.866-38.227,15.928" fill="#263238" stroke="#263238" stroke-linecap="round" stroke-linejoin="round" stroke-miterlimit="10" stroke-width="1"/><path d="M298.352,238.5c-1.068.336-33.449,6.725-36.28,6.194s-10.265-6.9-12.92-6.725-7.964,1.062-8.495,2.478,1.239,6.194,1.239,6.194-1.77,2.655-.885,3.894,6.017-1.77,6.017-1.77,5.84,4.247,8.495,3.363,5.486-1.947,5.486-1.947,41.59,2.478,42.121,2.655,5.663,1.239,6.194-6.194S304.546,236.549,298.352,238.5Z" fill="#fff" stroke="#263238" stroke-linecap="round" stroke-linejoin="round" stroke-miterlimit="10" stroke-width="1"/><line y1="6.018" x2="7.257" transform="translate(241.895 240.619)" fill="none" stroke="#263238" stroke-linecap="round" stroke-linejoin="round" stroke-miterlimit="10" stroke-width="1"/><path d="M244.55,243.982l3.894-12.212,1.592.354-1.946,8.849Z" fill="#263238"/><path d="M273.044,251.415s-43.006,11.858-49.908,10.973-9.026-3.893-10.619-3.893-6.017,2.124-7.964,1.947-4.248-.708-4.248.531,1.77,3.186,2.832,3.186,5.309-.177,5.309-.177-8.318,2.478-8.672,4.07a2.832,2.832,0,0,0,2.3,3.363,4.909,4.909,0,0,1,2.3,1.062,12.5,12.5,0,0,0,1.77,3.893c1.062,1.239,4.248,1.77,7.787,1.062s9.734-3.894,11.15-4.779,44.421-4.778,47.607-5.486,7.079-.708,8.318-2.832S273.044,251.415,273.044,251.415Z" fill="#fff"/><g clip-path="url(#b)"><path d="M221.036,270.952c-7.388,0-5.746-7.388-8.209-6.156-2.148,1.074-10.542,2.149-12.922,4.858a3,3,0,0,0,2.17,1.76,4.909,4.909,0,0,1,2.3,1.062,12.5,12.5,0,0,0,1.77,3.893c1.062,1.239,4.248,1.77,7.787,1.062s9.734-3.893,11.15-4.778,44.422-4.778,47.607-5.486c2.574-.572,5.61-.683,7.334-1.825.611-.617.984-1.007.984-1.007l-4.564-4.464S228.424,270.952,221.036,270.952Z" fill="#c6ff00"/></g><g clip-path="url(#b)"><path d="M221.036,270.952c-7.388,0-5.746-7.388-8.209-6.156-2.148,1.074-10.542,2.149-12.922,4.858a3,3,0,0,0,2.17,1.76,4.909,4.909,0,0,1,2.3,1.062,12.5,12.5,0,0,0,1.77,3.893c1.062,1.239,4.248,1.77,7.787,1.062s9.734-3.893,11.15-4.778,44.422-4.778,47.607-5.486c2.574-.572,5.61-.683,7.334-1.825.611-.617.984-1.007.984-1.007l-4.564-4.464S228.424,270.952,221.036,270.952Z" fill="#fff" opacity="0.5"/></g><path d="M273.044,251.415s-43.006,11.858-49.908,10.973-9.026-3.893-10.619-3.893-6.017,2.124-7.964,1.947-4.248-.708-4.248.531,1.77,3.186,2.832,3.186,5.309-.177,5.309-.177-8.318,2.478-8.672,4.07a2.832,2.832,0,0,0,2.3,3.363,4.909,4.909,0,0,1,2.3,1.062,12.5,12.5,0,0,0,1.77,3.893c1.062,1.239,4.248,1.77,7.787,1.062s9.734-3.894,11.15-4.779,44.421-4.778,47.607-5.486,7.079-.708,8.318-2.832S273.044,251.415,273.044,251.415Z" fill="none" stroke="#263238" stroke-linecap="round" stroke-linejoin="round" stroke-miterlimit="10" stroke-width="1"/><path d="M309.324,208.055s-3.894,10.619-8.849,17.7-7.079,14.512-3.893,22.476a16.282,16.282,0,0,0,10.088,9.734s-2.478,23.361-1.77,29.555,10.265,13.45,24.6,13.981,26.724-4.6,26.724-9.557-10.088-31.325-10.088-36.812.885-22.653-3.893-38.05S320.651,196.729,309.324,208.055Z" fill="#ddfbb6"/><g clip-path="url(#d)"><path d="M342.242,217.081c-2.574-8.295-8.643-13.552-15.464-14.873-3.291.729-12.275,2.837-14.519,3.364a23.185,23.185,0,0,0-2.935,2.483s-3.894,10.619-8.849,17.7c-3.322,4.746-5.362,9.653-5.391,14.771,13.059,3.086,33,8.11,31.021,8.674-2.873.821-15.186-5.746-11.492-1.642s23.394,22.984,17.648,21.342-18.469-15.186-15.186-8.619,12.313,17.238,9.44,17.238-18.059-15.186-12.723-6.156,29.551,23.394,21.753,25.446c-4.5,1.185-14.052.868-19.6,1.806A38.235,38.235,0,0,0,329.5,301.5c14.335.531,26.724-4.6,26.724-9.557s-10.088-31.325-10.088-36.812S347.021,232.478,342.242,217.081Z" fill="#ddfbb6" opacity="0.2"/></g><path d="M309.324,208.055s-3.894,10.619-8.849,17.7-7.079,14.512-3.893,22.476a16.282,16.282,0,0,0,10.088,9.734s-2.478,23.361-1.77,29.555,10.265,13.45,24.6,13.981,26.724-4.6,26.724-9.557-10.088-31.325-10.088-36.812.885-22.653-3.893-38.05S320.651,196.729,309.324,208.055Z" fill="none" stroke="#263238" stroke-linecap="round" stroke-linejoin="round" stroke-miterlimit="10" stroke-width="1"/><path d="M311.5,251s13,21,32,27" fill="#ddfbb6" stroke="#263238" stroke-linecap="round" stroke-linejoin="round" stroke-miterlimit="10" stroke-width="1"/><path d="M310,254.5s5,16.5,18,24.5" fill="#ddfbb6" stroke="#263238" stroke-linecap="round" stroke-linejoin="round" stroke-miterlimit="10" stroke-width="1"/><path d="M312.682,241.281s11.746-5.12,16.564-8.433" fill="#ddfbb6" stroke="#263238" stroke-linecap="round" stroke-linejoin="round" stroke-miterlimit="10" stroke-width="1"/><path d="M307.863,242.486s4.216.9,15.058,0" fill="#ddfbb6" stroke="#263238" stroke-linecap="round" stroke-linejoin="round" stroke-miterlimit="10" stroke-width="1"/><path d="M308.262,210.71a37.922,37.922,0,0,0-7.433,6.194c-4.07,4.247-23.715,33.98-23.715,33.98s5.84,12.212,7.61,12.565,32.564-26.016,35.4-29.2,4.6-9.026,3.717-11.5" fill="#ddfbb6"/><g clip-path="url(#e)"><path d="M320.12,234.248c2.832-3.186,4.6-9.026,3.717-11.5l-6.991-5.4-2.232,2.307s-.155,9.062-8.208,13.954-11.492,4.925-12.723,11.081,2.873,7.8-2.052,8.619-8.208,1.231-8.208,4.515a43.632,43.632,0,0,0,.37,4.873,2.156,2.156,0,0,0,.934.758C286.494,263.8,317.288,237.434,320.12,234.248Z" fill="#ddfbb6" opacity="0.2"/></g><path d="M308.262,210.71a37.922,37.922,0,0,0-7.433,6.194c-4.07,4.247-23.715,33.98-23.715,33.98s5.84,12.212,7.61,12.565,32.564-26.016,35.4-29.2,4.6-9.026,3.717-11.5" fill="none" stroke="#263238" stroke-linecap="round" stroke-linejoin="round" stroke-miterlimit="10" stroke-width="1"/><path d="M270.389,252.654s5.486,13.1,6.725,14.512,7.787.531,9.911-1.062,1.77-4.778,1.77-4.778-8.141-14.335-9.026-15.043-1.239.885-4.955,2.124S269.681,250.176,270.389,252.654Z" fill="#ddfbb6" stroke="#263238" stroke-linecap="round" stroke-linejoin="round" stroke-miterlimit="10" stroke-width="1"/><path d="M279.238,174.607s-.354,5.132.531,6.725,3.363,3.186,3.363,5.309-1.77,4.955-1.239,6.548,3.363,1.77,3.363,1.77,5.309,6.548,6.9,8.849,2.3,1.416,4.778.708,7.787-5.309,10.8-8.849-1.947-14.335-8.495-21.591-16.282-7.079-18.406-4.955S279.238,174.607,279.238,174.607Z" fill="#fff"/><g clip-path="url(#f)"><path d="M293.27,169.647c-.82,4.044-1.639,10.876.822,15.526,3.694,6.977,6.567,10.671,4.515,16.417-.366,1.023-.744,1.924-1.119,2.723,2.647-1.136,7.442-5.349,10.244-8.646,3.009-3.54-1.947-14.335-8.495-21.591A18.882,18.882,0,0,0,293.27,169.647Z" fill="#c6ff00"/></g><g clip-path="url(#f)"><path d="M293.27,169.647c-.82,4.044-1.639,10.876.822,15.526,3.694,6.977,6.567,10.671,4.515,16.417-.366,1.023-.744,1.924-1.119,2.723,2.647-1.136,7.442-5.349,10.244-8.646,3.009-3.54-1.947-14.335-8.495-21.591A18.882,18.882,0,0,0,293.27,169.647Z" fill="#fff" opacity="0.5"/></g><g clip-path="url(#f)"><path d="M283.132,182.217s0-2.655,3.186-.885" fill="none" stroke="#263238" stroke-linecap="round" stroke-linejoin="round" stroke-miterlimit="10" stroke-width="1"/></g><g clip-path="url(#f)"><path d="M285.4,184.684l.421,2.443s1.938.674,3.37-1.854" fill="none" stroke="#263238" stroke-linecap="round" stroke-linejoin="round" stroke-miterlimit="10" stroke-width="1"/></g><path d="M279.238,174.607s-.354,5.132.531,6.725,3.363,3.186,3.363,5.309-1.77,4.955-1.239,6.548,3.363,1.77,3.363,1.77,5.309,6.548,6.9,8.849,2.3,1.416,4.778.708,7.787-5.309,10.8-8.849-1.947-14.335-8.495-21.591-16.282-7.079-18.406-4.955S279.238,174.607,279.238,174.607Z" fill="none" stroke="#263238" stroke-linecap="round" stroke-linejoin="round" stroke-miterlimit="10" stroke-width="1"/><path d="M273.752,166.819l-.027.707L273.4,176.2l9.557,1.239,2.124-3.716v4.07a19.583,19.583,0,0,1,8.672,1.239c4.6,1.77,10.442,14.335,10.088,19.468s-4.778,6.194-4.247,13.981,12.388,15.574,21.414,10.619,10.442-11.327,14.158-10.088,9.38,8.849,12.919-1.947,1.947-17.7-6.371-26.547-14.866-8.141-15.928-15.22-3.363-16.636-10.973-21.945-18.583-5.663-27.963-1.593S273.752,162.218,273.752,166.819Z" fill="#263238"/><g clip-path="url(#j)"><path d="M279.074,170.884a.862.862,0,0,1-.189-.021c-1.024-.23-1.166-2-1.262-6.306-.025-1.114-.051-2.266-.121-3.185-.008-.091-.017-.167-.025-.23-.842,1.018-2.65,5.25-4.006,9.028l-.941-.338c3.618-10.08,4.8-9.933,5.184-9.876.689.093.76,1,.785,1.34.073.946.1,2.112.125,3.239.039,1.776.1,4.692.482,5.3a5.46,5.46,0,0,0,1.115-1.73c1.042-2.084,1.961-3.043,2.919-2.991,1.185.054,1.8,1.623,2.245,2.769a6.223,6.223,0,0,0,.365.835c.439.117,2-1.476,2.835-2.333.246-.253.491-.505.729-.743a1.826,1.826,0,0,1,1.421-.714c.555.084.829.6,1.12,1.152a4.5,4.5,0,0,0,1.125,1.525c.316.253.482.214.546.2.722-.174,1.593-2.114,2.6-4.362.235-.523.484-1.078.751-1.656.33-.716.783-1.55,1.519-1.479.938.07,1.361,1.531,2,3.741a16.535,16.535,0,0,0,1.993,4.973c.221.284.537.606.824.569.784-.121,1.645-2.435,2.159-3.818a14.074,14.074,0,0,1,.86-2.035.963.963,0,0,1,.854-.547c.741.025,1.244,1.006,1.939,2.364.52,1.016,1.232,2.407,1.822,2.643.117.046.161.025.186.014.388-.2.725-1.483.995-2.517a11.457,11.457,0,0,1,1.218-3.309,1.992,1.992,0,0,1,1.363-.927c1.306-.21,2.765.919,3.737,1.676-.051-.508-.157-1.211-.249-1.822-.5-3.323-.645-4.939.187-5.394.388-.212.85-.09,1.373.367a35.369,35.369,0,0,1,2.558,2.694c1.833,2.054,4.61,5.158,5.732,4.857.312-.083.477-.56.559-.947l.979.21c-.206.96-.637,1.533-1.281,1.7-1.606.425-3.8-1.872-6.734-5.158a34.884,34.884,0,0,0-2.47-2.607,1.523,1.523,0,0,0-.242-.18c-.224.633.147,3.088.329,4.3.355,2.353.429,2.981-.032,3.274a.6.6,0,0,1-.669-.025c-.17-.113-.386-.281-.634-.475-.785-.611-2.1-1.626-2.982-1.493a1.011,1.011,0,0,0-.691.495A10.863,10.863,0,0,0,313,165.951c-.388,1.48-.722,2.758-1.513,3.157a1.2,1.2,0,0,1-1.007.023c-.938-.375-1.651-1.769-2.341-3.116a9.762,9.762,0,0,0-1.041-1.764.021.021,0,0,0,0,.006,13.928,13.928,0,0,0-.78,1.868c-.74,1.991-1.58,4.248-2.945,4.458a1.921,1.921,0,0,1-1.765-.943,17.109,17.109,0,0,1-2.165-5.309,10.32,10.32,0,0,0-1.141-3.021,5.89,5.89,0,0,0-.513.9c-.266.575-.513,1.126-.747,1.647-1.254,2.791-2.082,4.635-3.28,4.924a1.594,1.594,0,0,1-1.4-.391,5.48,5.48,0,0,1-1.385-1.838,2.518,2.518,0,0,0-.4-.635,2.012,2.012,0,0,0-.548.436c-.235.235-.477.483-.721.734-1.658,1.7-2.717,2.724-3.631,2.649a1,1,0,0,1-.752-.459,5.908,5.908,0,0,1-.464-1.026c-.288-.737-.824-2.109-1.36-2.133-.164-.034-.834.148-1.979,2.439C280.3,170.183,279.693,170.884,279.074,170.884Z" fill="#575757"/><path d="M298.963,211.063s2.477-9.232,4.954-6.3,4.279,3.828,4.5,1.351,0-6.08,2.477-2.7,8.557,6.755,9.007,1.576,1.126-12.16,4.053-8.557,5.4,6.3,5.63,4.279,2.252-3.6,3.152-1.351,1.576,4.5,2.252-.676-2.477-10.809.9-9.457,4.954,5.855,4.954,3.378-4.053-5.4-.45-4.5,4.053,3.152,4.5,1.8-2.027-4.5,1.126-4.5" fill="none" stroke="#575757" stroke-miterlimit="10" stroke-width="1"/></g><path d="M273.752,166.819l-.027.707L273.4,176.2l9.557,1.239,2.124-3.716v4.07a19.583,19.583,0,0,1,8.672,1.239c4.6,1.77,10.442,14.335,10.088,19.468s-4.778,6.194-4.247,13.981,12.388,15.574,21.414,10.619,10.442-11.327,14.158-10.088,9.38,8.849,12.919-1.947,1.947-17.7-6.371-26.547-14.866-8.141-15.928-15.22-3.363-16.636-10.973-21.945-18.583-5.663-27.963-1.593S273.752,162.218,273.752,166.819Z" fill="none" stroke="#263238" stroke-linecap="round" stroke-linejoin="round" stroke-miterlimit="10" stroke-width="1"/><path d="M295.315,190.281" fill="none" stroke="#263238" stroke-linecap="round" stroke-linejoin="round" stroke-miterlimit="10" stroke-width="1"/><line x2="365.942" transform="translate(67.226 434.359)" fill="none" stroke="#263238" stroke-miterlimit="10" stroke-width="1"/></g></svg>